<?xml version="1.0" standalone="no"?>
<!DOCTYPE svg PUBLIC "-//W3C//DTD SVG 20010904//EN"
 "http://www.w3.org/TR/2001/REC-SVG-20010904/DTD/svg10.dtd">
<svg version="1.0" xmlns="http://www.w3.org/2000/svg"
 width="225.000000pt" height="225.000000pt" viewBox="0 0 225.000000 225.000000"
 preserveAspectRatio="xMidYMid meet">

<g transform="translate(0.000000,225.000000) scale(0.100000,-0.100000)"
fill="#000000" stroke="none">
<path d="M945 2025 c-290 -64 -528 -254 -651 -519 -64 -140 -79 -212 -78 -391
0 -145 3 -168 27 -248 52 -169 135 -306 254 -417 251 -237 591 -316 917 -213
302 95 533 338 618 651 32 115 32 344 0 462 -93 345 -364 601 -715 675 -85 18
-290 18 -372 0z m371 -175 c140 -36 242 -94 347 -196 298 -292 302 -768 7
-1064 -83 -84 -163 -136 -271 -177 -282 -106 -586 -39 -799 177 -110 111 -174
230 -207 383 -18 88 -13 254 12 342 71 260 281 465 545 534 104 28 261 28 366
1z"/>
<path d="M1010 1350 l0 -130 125 0 125 0 0 130 0 130 -125 0 -125 0 0 -130z"/>
<path d="M1010 885 l0 -125 125 0 125 0 0 125 0 125 -125 0 -125 0 0 -125z"/>
</g>
</svg>
