<?xml version="1.0" standalone="no"?>
<!DOCTYPE svg PUBLIC "-//W3C//DTD SVG 20010904//EN"
 "http://www.w3.org/TR/2001/REC-SVG-20010904/DTD/svg10.dtd">
<svg version="1.0" xmlns="http://www.w3.org/2000/svg"
 width="64.000000pt" height="64.000000pt" viewBox="0 0 64.000000 64.000000"
 preserveAspectRatio="xMidYMid meet">

<g transform="translate(0.000000,64.000000) scale(0.100000,-0.100000)"
fill="#000000" stroke="none">
<path d="M0 320 l0 -320 320 0 320 0 0 320 0 320 -320 0 -320 0 0 -320z m426
212 c84 -43 128 -116 129 -212 0 -137 -100 -240 -235 -240 -92 0 -174 53 -217
139 -24 48 -24 154 1 201 64 123 205 172 322 112z"/>
<path d="M256 500 c-37 -12 -94 -66 -112 -107 -27 -62 -11 -156 34 -206 67
-74 217 -74 284 0 43 47 60 140 37 200 -33 89 -146 142 -243 113z m101 -122
c-3 -30 -6 -33 -37 -33 -31 0 -34 3 -37 33 -4 31 -3 32 37 32 40 0 41 -1 37
-32z m-1 -120 c-1 -31 -4 -33 -36 -33 -32 0 -35 2 -36 33 -1 31 0 32 36 32 36
0 37 -1 36 -32z"/>
</g>
</svg>
